<svg width="18" height="18" viewBox="0 0 18 18" fill="none" xmlns="http://www.w3.org/2000/svg">
<path d="M17.4001 0.613326C17.2767 0.489722 17.1302 0.391658 16.9689 0.32475C16.8076 0.257841 16.6347 0.223401 16.4601 0.223401C16.2854 0.223401 16.1125 0.257841 15.9512 0.32475C15.7899 0.391658 15.6434 0.489722 15.5201 0.613326L9.00005 7.11999L2.48005 0.599993C2.35661 0.47655 2.21006 0.37863 2.04878 0.311824C1.88749 0.245017 1.71463 0.210632 1.54005 0.210632C1.36548 0.210632 1.19261 0.245017 1.03133 0.311824C0.870044 0.37863 0.723496 0.47655 0.600054 0.599993C0.476611 0.723435 0.378691 0.869983 0.311885 1.03127C0.245078 1.19255 0.210693 1.36542 0.210693 1.53999C0.210693 1.71457 0.245078 1.88743 0.311885 2.04872C0.378691 2.21 0.476611 2.35655 0.600054 2.47999L7.12005 8.99999L0.600054 15.52C0.476611 15.6434 0.378691 15.79 0.311885 15.9513C0.245078 16.1126 0.210693 16.2854 0.210693 16.46C0.210693 16.6346 0.245078 16.8074 0.311885 16.9687C0.378691 17.13 0.476611 17.2765 0.600054 17.4C0.723496 17.5234 0.870044 17.6214 1.03133 17.6882C1.19261 17.755 1.36548 17.7894 1.54005 17.7894C1.71463 17.7894 1.88749 17.755 2.04878 17.6882C2.21006 17.6214 2.35661 17.5234 2.48005 17.4L9.00005 10.88L15.5201 17.4C15.6435 17.5234 15.79 17.6214 15.9513 17.6882C16.1126 17.755 16.2855 17.7894 16.4601 17.7894C16.6346 17.7894 16.8075 17.755 16.9688 17.6882C17.1301 17.6214 17.2766 17.5234 17.4001 17.4C17.5235 17.2765 17.6214 17.13 17.6882 16.9687C17.755 16.8074 17.7894 16.6346 17.7894 16.46C17.7894 16.2854 17.755 16.1126 17.6882 15.9513C17.6214 15.79 17.5235 15.6434 17.4001 15.52L10.8801 8.99999L17.4001 2.47999C17.9067 1.97333 17.9067 1.11999 17.4001 0.613326Z" fill="#111111"/>
</svg>
