<svg width="12" height="12" viewBox="0 0 12 12" fill="none" xmlns="http://www.w3.org/2000/svg">
<path d="M6.59953 5.99808L11.1019 1.49128C11.1814 1.41146 11.2259 1.30341 11.2258 1.1908C11.2258 1.07819 11.1811 0.970202 11.1015 0.890484C10.9423 0.732084 10.6619 0.731284 10.5011 0.891284L5.99993 5.39808L1.49714 0.890084C1.33714 0.732084 1.05674 0.732884 0.897535 0.890884C0.85802 0.930242 0.826739 0.977075 0.805518 1.02865C0.784297 1.08023 0.773561 1.13551 0.773935 1.19128C0.773935 1.30488 0.817935 1.41128 0.897535 1.49008L5.39993 5.99768L0.897935 10.5057C0.818489 10.5856 0.773999 10.6938 0.774224 10.8065C0.774449 10.9192 0.819371 11.0273 0.899135 11.1069C0.976335 11.1833 1.08554 11.2273 1.19834 11.2273H1.20074C1.31394 11.2269 1.42314 11.1825 1.49874 11.1053L5.99993 6.59849L10.5027 11.1065C10.5823 11.1857 10.6887 11.2297 10.8015 11.2297C10.8573 11.2298 10.9126 11.219 10.9641 11.1977C11.0157 11.1764 11.0625 11.1452 11.102 11.1057C11.1414 11.0663 11.1727 11.0194 11.194 10.9679C11.2152 10.9163 11.2261 10.8611 11.2259 10.8053C11.2259 10.6921 11.1819 10.5853 11.1019 10.5065L6.59953 5.99808Z" fill="#555555"/>
</svg>
