<svg width="15" height="14" viewBox="0 0 15 14" fill="none" xmlns="http://www.w3.org/2000/svg">
<path d="M5.917 0.427373C6.0244 0.320693 6.1692 0.260159 6.32057 0.258665C6.47194 0.257171 6.61792 0.314834 6.7274 0.419373C6.78101 0.470178 6.82388 0.531224 6.85346 0.598896C6.88305 0.666569 6.89876 0.739491 6.89966 0.813343C6.90055 0.887196 6.88662 0.960477 6.85868 1.02885C6.83074 1.09722 6.78936 1.15928 6.737 1.21137L1.377 6.57697L7.033 12.1034C7.08598 12.1548 7.1281 12.2164 7.15686 12.2844C7.18562 12.3524 7.20044 12.4255 7.20044 12.4994C7.20044 12.5732 7.18562 12.6463 7.15686 12.7143C7.1281 12.7824 7.08598 12.8439 7.033 12.8954C6.92449 13.0006 6.77931 13.0594 6.6282 13.0594C6.47709 13.0594 6.3319 13.0006 6.2234 12.8954L0.167399 6.97937C0.114769 6.92825 0.072858 6.86715 0.0441165 6.79965C0.0153749 6.73214 0.000379545 6.65958 7.11224e-06 6.58621C-0.000365321 6.51284 0.0138927 6.44014 0.0419474 6.37234C0.0700022 6.30455 0.111291 6.24302 0.163399 6.19137L5.917 0.427373ZM13.117 0.427373C13.2244 0.320931 13.369 0.260548 13.5202 0.259054C13.6714 0.25756 13.8172 0.315073 13.9266 0.419373C13.9802 0.470178 14.0231 0.531224 14.0527 0.598896C14.0823 0.666569 14.098 0.739491 14.0989 0.813343C14.0997 0.887196 14.0858 0.960477 14.0579 1.02885C14.0299 1.09722 13.9886 1.15928 13.9362 1.21137L8.5762 6.57697L14.2322 12.1034C14.2852 12.1548 14.3273 12.2164 14.3561 12.2844C14.3848 12.3524 14.3996 12.4255 14.3996 12.4994C14.3996 12.5732 14.3848 12.6463 14.3561 12.7143C14.3273 12.7824 14.2852 12.8439 14.2322 12.8954C14.1237 13.0006 13.9785 13.0594 13.8274 13.0594C13.6763 13.0594 13.5311 13.0006 13.4226 12.8954L7.3674 6.97937C7.31477 6.92825 7.27286 6.86715 7.24412 6.79965C7.21538 6.73214 7.20038 6.65958 7.20001 6.58621C7.19964 6.51284 7.21389 6.44014 7.24195 6.37234C7.27 6.30455 7.31129 6.24302 7.3634 6.19137L13.117 0.427373Z" fill="#777777"/>
</svg>
