<svg width="15" height="14" viewBox="0 0 15 14" fill="none" xmlns="http://www.w3.org/2000/svg">
<path d="M8.88232 0.427373C8.77492 0.320693 8.63011 0.260159 8.47874 0.258665C8.32737 0.257171 8.1814 0.314834 8.07192 0.419373C8.01831 0.470178 7.97544 0.531224 7.94585 0.598896C7.91626 0.666569 7.90056 0.739491 7.89966 0.813343C7.89877 0.887196 7.9127 0.960477 7.94064 1.02885C7.96858 1.09722 8.00996 1.15928 8.06232 1.21137L13.4223 6.57697L7.76632 12.1034C7.71334 12.1548 7.67122 12.2164 7.64246 12.2844C7.6137 12.3524 7.59888 12.4255 7.59888 12.4994C7.59888 12.5732 7.6137 12.6463 7.64246 12.7143C7.67122 12.7824 7.71334 12.8439 7.76632 12.8954C7.87482 13.0006 8.02 13.0594 8.17112 13.0594C8.32223 13.0594 8.46741 13.0006 8.57592 12.8954L14.6319 6.97937C14.6845 6.92825 14.7265 6.86715 14.7552 6.79965C14.7839 6.73214 14.7989 6.65958 14.7993 6.58621C14.7997 6.51284 14.7854 6.44014 14.7574 6.37234C14.7293 6.30455 14.688 6.24302 14.6359 6.19137L8.88232 0.427373ZM1.68232 0.427373C1.57495 0.320931 1.43032 0.260548 1.27914 0.259054C1.12796 0.25756 0.982162 0.315073 0.872717 0.419373C0.819108 0.470178 0.77624 0.531224 0.746652 0.598896C0.717063 0.666569 0.701358 0.739491 0.700462 0.813343C0.699567 0.887196 0.713501 0.960477 0.741441 1.02885C0.769381 1.09722 0.810757 1.15928 0.863118 1.21137L6.22312 6.57697L0.567117 12.1034C0.514136 12.1548 0.472021 12.2164 0.44326 12.2844C0.414499 12.3524 0.399679 12.4255 0.399679 12.4994C0.399679 12.5732 0.414499 12.6463 0.44326 12.7143C0.472021 12.7824 0.514136 12.8439 0.567117 12.8954C0.675621 13.0006 0.820803 13.0594 0.971917 13.0594C1.12303 13.0594 1.26821 13.0006 1.37672 12.8954L7.43192 6.97937C7.48455 6.92825 7.52646 6.86715 7.5552 6.79965C7.58394 6.73214 7.59894 6.65958 7.59931 6.58621C7.59968 6.51284 7.58542 6.44014 7.55737 6.37234C7.52931 6.30455 7.48803 6.24302 7.43592 6.19137L1.68232 0.427373Z" fill="#777777"/>
</svg>
