<svg width="14" height="17" viewBox="0 0 14 17" fill="none" xmlns="http://www.w3.org/2000/svg">
<path d="M2.615 16.385C2.16833 16.385 1.78733 16.2277 1.472 15.913C1.15733 15.5983 1 15.2173 1 14.77V2.38499H0V1.38499H4V0.61499H10V1.38499H14V2.38499H13V14.77C13 15.23 12.846 15.614 12.538 15.922C12.2293 16.2307 11.845 16.385 11.385 16.385H2.615ZM12 2.38499H2V14.77C2 14.9493 2.05767 15.0967 2.173 15.212C2.28833 15.3273 2.43567 15.385 2.615 15.385H11.385C11.5383 15.385 11.6793 15.321 11.808 15.193C11.936 15.0643 12 14.9233 12 14.77V2.38499ZM4.808 13.385H5.808V4.38499H4.808V13.385ZM8.192 13.385H9.192V4.38499H8.192V13.385Z" fill="#002F87"/>
</svg>
