<svg width="12" height="12" viewBox="0 0 12 12" fill="none" xmlns="http://www.w3.org/2000/svg">
<path d="M0.770097 5.23391H9.37209L5.61401 1.47584C5.31367 1.1755 5.31367 0.682637 5.61401 0.382299C5.68525 0.310909 5.76988 0.25427 5.86304 0.215625C5.9562 0.176981 6.05607 0.157089 6.15693 0.157089C6.25779 0.157089 6.35766 0.176981 6.45082 0.215625C6.54398 0.25427 6.6286 0.310909 6.69985 0.382299L11.7748 5.45724C11.8462 5.52849 11.9028 5.61311 11.9415 5.70627C11.9801 5.79943 12 5.8993 12 6.00016C12 6.10102 11.9801 6.20089 11.9415 6.29405C11.9028 6.38721 11.8462 6.47183 11.7748 6.54308L6.69985 11.618C6.62855 11.6893 6.54391 11.7459 6.45075 11.7845C6.3576 11.823 6.25776 11.8429 6.15693 11.8429C6.0561 11.8429 5.95626 11.823 5.8631 11.7845C5.76995 11.7459 5.68531 11.6893 5.61401 11.618C5.54271 11.5467 5.48616 11.4621 5.44757 11.3689C5.40899 11.2758 5.38913 11.1759 5.38913 11.0751C5.38913 10.9743 5.40899 10.8744 5.44757 10.7813C5.48616 10.6881 5.54271 10.6035 5.61401 10.5322L9.37209 6.77411H0.770097C0.346543 6.77411 0 6.42756 0 6.00401C0 5.58046 0.346543 5.23391 0.770097 5.23391Z" fill="#777777"/>
</svg>
