<svg width="8" height="14" viewBox="0 0 8 14" fill="none" xmlns="http://www.w3.org/2000/svg">
<path d="M6.91083 13.2814C6.84666 13.2814 6.78311 13.2688 6.72381 13.2443C6.66451 13.2197 6.61062 13.1838 6.56523 13.1384L0.542715 7.11556C0.451116 7.02394 0.399658 6.89968 0.399658 6.77012C0.399658 6.64056 0.451116 6.51631 0.542715 6.42468L6.56523 0.401838C6.61059 0.356453 6.66445 0.320447 6.72373 0.295876C6.78301 0.271306 6.84655 0.258652 6.91072 0.258636C6.97489 0.258621 7.03843 0.271246 7.09772 0.295788C7.15701 0.320331 7.21089 0.356312 7.25628 0.401676C7.30166 0.44704 7.33767 0.500899 7.36224 0.560178C7.38681 0.619457 7.39946 0.682996 7.39948 0.747165C7.39949 0.811335 7.38687 0.874879 7.36233 0.93417C7.33778 0.993461 7.3018 1.04734 7.25644 1.09272L1.5792 6.76996L7.25644 12.4472C7.32482 12.5155 7.37139 12.6026 7.39026 12.6974C7.40913 12.7922 7.39945 12.8905 7.36245 12.9798C7.32545 13.0691 7.26279 13.1454 7.1824 13.1991C7.10201 13.2528 7.0075 13.2814 6.91083 13.2814Z" fill="#777777" stroke="#777777" stroke-width="0.2"/>
</svg>
