<svg width="8" height="14" viewBox="0 0 8 14" fill="none" xmlns="http://www.w3.org/2000/svg">
<path d="M0.888482 13.2814C0.952657 13.2814 1.01621 13.2688 1.07551 13.2443C1.13481 13.2197 1.18869 13.1838 1.23409 13.1384L7.2566 7.11556C7.3482 7.02394 7.39966 6.89968 7.39966 6.77012C7.39966 6.64056 7.3482 6.51631 7.2566 6.42468L1.23409 0.401838C1.18872 0.356453 1.13486 0.320447 1.07558 0.295876C1.01631 0.271306 0.952767 0.258652 0.888597 0.258636C0.824428 0.258621 0.760884 0.271246 0.701593 0.295788C0.642303 0.320331 0.588425 0.356312 0.54304 0.401676C0.497654 0.44704 0.461649 0.500899 0.437078 0.560178C0.412508 0.619457 0.399853 0.682996 0.399838 0.747165C0.399823 0.811335 0.412447 0.874879 0.43699 0.93417C0.461533 0.993461 0.497514 1.04734 0.542878 1.09272L6.22011 6.76996L0.542878 12.4472C0.474501 12.5155 0.42793 12.6026 0.409059 12.6974C0.390188 12.7922 0.399863 12.8905 0.436863 12.9798C0.473862 13.0691 0.536523 13.1454 0.616914 13.1991C0.697305 13.2528 0.791813 13.2814 0.888482 13.2814Z" fill="#777777" stroke="#777777" stroke-width="0.2"/>
</svg>
