<svg width="74" height="84" viewBox="0 0 74 84" fill="none" xmlns="http://www.w3.org/2000/svg">
<path d="M19.8572 7.71428H8.42864C6.91312 7.71428 5.45967 8.31632 4.38803 9.38796C3.3164 10.4596 2.71436 11.913 2.71436 13.4286V76.2857C2.71436 77.8012 3.3164 79.2547 4.38803 80.3263C5.45967 81.398 6.91312 82 8.42864 82H65.5715C67.087 82 68.5405 81.398 69.6121 80.3263C70.6837 79.2547 71.2858 77.8012 71.2858 76.2857V13.4286C71.2858 11.913 70.6837 10.4596 69.6121 9.38796C68.5405 8.31632 67.087 7.71428 65.5715 7.71428H54.1429" stroke="#999999" stroke-width="3.5" stroke-linecap="round" stroke-linejoin="round"/>
<path fill-rule="evenodd" clip-rule="evenodd" d="M25.5715 2H48.4286C49.9441 2 51.3976 2.60204 52.4692 3.67368C53.5409 4.74531 54.1429 6.19876 54.1429 7.71429C54.1429 9.22981 53.5409 10.6833 52.4692 11.7549C51.3976 12.8265 49.9441 13.4286 48.4286 13.4286H25.5715C24.0559 13.4286 22.6025 12.8265 21.5309 11.7549C20.4592 10.6833 19.8572 9.22981 19.8572 7.71429C19.8572 6.19876 20.4592 4.74531 21.5309 3.67368C22.6025 2.60204 24.0559 2 25.5715 2Z" stroke="#999999" stroke-width="3.5" stroke-linecap="round" stroke-linejoin="round"/>
<path d="M19.8572 47.7143L31.2857 59.1428L59.8572 30.5714" stroke="#002F87" stroke-width="5" stroke-linecap="round" stroke-linejoin="round"/>
</svg>
