<svg width="12" height="12" viewBox="0 0 12 12" fill="none" xmlns="http://www.w3.org/2000/svg">
<path d="M11.2299 5.23391H2.62791L6.38599 1.47584C6.68633 1.1755 6.68633 0.682637 6.38599 0.382299C6.31475 0.310909 6.23012 0.25427 6.13696 0.215625C6.0438 0.176981 5.94393 0.157089 5.84307 0.157089C5.74221 0.157089 5.64234 0.176981 5.54918 0.215625C5.45602 0.25427 5.3714 0.310909 5.30015 0.382299L0.225211 5.45724C0.15382 5.52849 0.097181 5.61311 0.0585364 5.70627C0.0198918 5.79943 0 5.8993 0 6.00016C0 6.10102 0.0198918 6.20089 0.0585364 6.29405C0.097181 6.38721 0.15382 6.47183 0.225211 6.54308L5.30015 11.618C5.37145 11.6893 5.45609 11.7459 5.54925 11.7845C5.6424 11.823 5.74224 11.8429 5.84307 11.8429C5.9439 11.8429 6.04374 11.823 6.1369 11.7845C6.23005 11.7459 6.31469 11.6893 6.38599 11.618C6.45729 11.5467 6.51384 11.4621 6.55243 11.3689C6.59101 11.2758 6.61087 11.1759 6.61087 11.0751C6.61087 10.9743 6.59101 10.8744 6.55243 10.7813C6.51384 10.6881 6.45729 10.6035 6.38599 10.5322L2.62791 6.77411H11.2299C11.6535 6.77411 12 6.42756 12 6.00401C12 5.58046 11.6535 5.23391 11.2299 5.23391Z" fill="#777777"/>
</svg>
