<svg width="16" height="15" viewBox="0 0 16 15" fill="none" xmlns="http://www.w3.org/2000/svg">
<path fill-rule="evenodd" clip-rule="evenodd" d="M11.3333 0C11.5543 0 11.7663 0.0877973 11.9226 0.244078C12.0789 0.400358 12.1667 0.61232 12.1667 0.833333V1.66667H13.8333C14.2754 1.66667 14.6993 1.84226 15.0118 2.15482C15.3244 2.46738 15.5 2.89131 15.5 3.33333V13.3333C15.5 13.7754 15.3244 14.1993 15.0118 14.5118C14.6993 14.8244 14.2754 15 13.8333 15H2.16667C1.72464 15 1.30072 14.8244 0.988155 14.5118C0.675595 14.1993 0.5 13.7754 0.5 13.3333V3.33333C0.5 2.89131 0.675595 2.46738 0.988155 2.15482C1.30072 1.84226 1.72464 1.66667 2.16667 1.66667H3.83333V0.833333C3.83333 0.61232 3.92113 0.400358 4.07741 0.244078C4.23369 0.0877973 4.44565 0 4.66667 0C4.88768 0 5.09964 0.0877973 5.25592 0.244078C5.4122 0.400358 5.5 0.61232 5.5 0.833333V1.66667H10.5V0.833333C10.5 0.61232 10.5878 0.400358 10.7441 0.244078C10.9004 0.0877973 11.1123 0 11.3333 0ZM4.66667 3.33333H2.16667V5H13.8333V3.33333H11.3333H4.66667ZM2.16667 6.66667V13.3333H13.8333V6.66667H2.16667ZM3.83333 8.33333C3.83333 8.11232 3.92113 7.90036 4.07741 7.74408C4.23369 7.5878 4.44565 7.5 4.66667 7.5H4.675C4.89601 7.5 5.10798 7.5878 5.26426 7.74408C5.42054 7.90036 5.50833 8.11232 5.50833 8.33333C5.50833 8.55435 5.42054 8.76631 5.26426 8.92259C5.10798 9.07887 4.89601 9.16667 4.675 9.16667H4.66667C4.44565 9.16667 4.23369 9.07887 4.07741 8.92259C3.92113 8.76631 3.83333 8.55435 3.83333 8.33333ZM4.66667 10C4.44565 10 4.23369 10.0878 4.07741 10.2441C3.92113 10.4004 3.83333 10.6123 3.83333 10.8333C3.83333 11.0543 3.92113 11.2663 4.07741 11.4226C4.23369 11.5789 4.44565 11.6667 4.66667 11.6667H4.675C4.89601 11.6667 5.10798 11.5789 5.26426 11.4226C5.42054 11.2663 5.50833 11.0543 5.50833 10.8333C5.50833 10.6123 5.42054 10.4004 5.26426 10.2441C5.10798 10.0878 4.89601 10 4.675 10H4.66667ZM7.16667 8.33333C7.16667 8.11232 7.25446 7.90036 7.41074 7.74408C7.56702 7.5878 7.77899 7.5 8 7.5H8.00833C8.22935 7.5 8.44131 7.5878 8.59759 7.74408C8.75387 7.90036 8.84167 8.11232 8.84167 8.33333C8.84167 8.55435 8.75387 8.76631 8.59759 8.92259C8.44131 9.07887 8.22935 9.16667 8.00833 9.16667H8C7.77899 9.16667 7.56702 9.07887 7.41074 8.92259C7.25446 8.76631 7.16667 8.55435 7.16667 8.33333ZM8 10C7.77899 10 7.56702 10.0878 7.41074 10.2441C7.25446 10.4004 7.16667 10.6123 7.16667 10.8333C7.16667 11.0543 7.25446 11.2663 7.41074 11.4226C7.56702 11.5789 7.77899 11.6667 8 11.6667H8.00833C8.22935 11.6667 8.44131 11.5789 8.59759 11.4226C8.75387 11.2663 8.84167 11.0543 8.84167 10.8333C8.84167 10.6123 8.75387 10.4004 8.59759 10.2441C8.44131 10.0878 8.22935 10 8.00833 10H8ZM10.5 8.33333C10.5 8.11232 10.5878 7.90036 10.7441 7.74408C10.9004 7.5878 11.1123 7.5 11.3333 7.5H11.3417C11.5627 7.5 11.7746 7.5878 11.9309 7.74408C12.0872 7.90036 12.175 8.11232 12.175 8.33333C12.175 8.55435 12.0872 8.76631 11.9309 8.92259C11.7746 9.07887 11.5627 9.16667 11.3417 9.16667H11.3333C11.1123 9.16667 10.9004 9.07887 10.7441 8.92259C10.5878 8.76631 10.5 8.55435 10.5 8.33333ZM11.3333 10C11.1123 10 10.9004 10.0878 10.7441 10.2441C10.5878 10.4004 10.5 10.6123 10.5 10.8333C10.5 11.0543 10.5878 11.2663 10.7441 11.4226C10.9004 11.5789 11.1123 11.6667 11.3333 11.6667H11.3417C11.5627 11.6667 11.7746 11.5789 11.9309 11.4226C12.0872 11.2663 12.175 11.0543 12.175 10.8333C12.175 10.6123 12.0872 10.4004 11.9309 10.2441C11.7746 10.0878 11.5627 10 11.3417 10H11.3333Z" fill="#898989"/>
</svg>
