<svg width="17" height="16" viewBox="0 0 17 16" fill="none" xmlns="http://www.w3.org/2000/svg">
<path d="M1.5 8C1.5 8.91925 1.68106 9.82951 2.03284 10.6788C2.38463 11.5281 2.90024 12.2997 3.55025 12.9497C4.20026 13.5998 4.97194 14.1154 5.82122 14.4672C6.6705 14.8189 7.58075 15 8.5 15C9.41925 15 10.3295 14.8189 11.1788 14.4672C12.0281 14.1154 12.7997 13.5998 13.4497 12.9497C14.0998 12.2997 14.6154 11.5281 14.9672 10.6788C15.3189 9.82951 15.5 8.91925 15.5 8C15.5 6.14348 14.7625 4.36301 13.4497 3.05025C12.137 1.7375 10.3565 1 8.5 1C6.64348 1 4.86301 1.7375 3.55025 3.05025C2.2375 4.36301 1.5 6.14348 1.5 8Z" stroke="#898989" stroke-width="1.8" stroke-linecap="round" stroke-linejoin="round"/>
<path d="M8.5 4.11111V8L10.8333 10.3333" stroke="#898989" stroke-width="1.8" stroke-linecap="round" stroke-linejoin="round"/>
</svg>
